<?xml version="1.0" encoding="utf-8"?>
<!-- Generator: Adobe Illustrator 16.0.0, SVG Export Plug-In . SVG Version: 6.00 Build 0)  -->
<!DOCTYPE svg PUBLIC "-//W3C//DTD SVG 1.1//EN" "http://www.w3.org/Graphics/SVG/1.1/DTD/svg11.dtd">
<svg version="1.1" id="Layer_1" xmlns="http://www.w3.org/2000/svg" xmlns:xlink="http://www.w3.org/1999/xlink" x="0px" y="0px"
	 width="283.46px" height="283.46px" viewBox="0 0 283.46 283.46" enable-background="new 0 0 283.46 283.46" xml:space="preserve">
<circle opacity="0.3" fill="#006837" cx="97.164" cy="97.962" r="23.305"/>
<circle opacity="0.3" fill="#006837" cx="74.164" cy="67.962" r="39.301"/>
<circle opacity="0.3" fill="#006837" cx="204.164" cy="212.962" r="57.834"/>
<path fill="#006837" d="M120.281,146.433l-4.708-4.089l-3.962,4.814l-9.56,11.618L101,157.756l-4.472-4.349l-4.226,4.587
	l-3.81,4.136l-4.004,4.347l4.238,4.119l10.037,9.761l4.729,4.601l4.193-5.095l17.538-21.312l3.755-4.567l-4.462-3.875
	L120.281,146.433z M102.992,176.006l-10.037-9.761l3.811-4.136l5.78,5.624l13.753-16.714l4.231,3.677L102.992,176.006z"/>
<rect x="131.33" y="155.128" fill="#FFFFFF" width="63.411" height="6.071"/>
<rect x="131.33" y="165.777" fill="#FFFFFF" width="63.411" height="6.072"/>
<path fill="#006837" d="M120.281,185.019l-4.708-4.089l-3.962,4.813l-9.56,11.62L101,196.343l-4.472-4.351l-4.226,4.587l-3.81,4.137
	l-4.004,4.346l4.238,4.12l10.037,9.761l4.729,4.6l4.193-5.094l17.538-21.313l3.755-4.565l-4.462-3.878L120.281,185.019z
	 M102.992,214.591l-10.037-9.761l3.811-4.135l5.78,5.623l13.753-16.712l4.231,3.676L102.992,214.591z"/>
<rect x="131.33" y="193.714" fill="#FFFFFF" width="63.411" height="6.072"/>
<rect x="131.33" y="204.363" fill="#FFFFFF" width="63.411" height="6.072"/>
<path fill="#FFFFFF" d="M115.604,126.861c15.337,0,27.771-12.435,27.771-27.772h-27.771V71.319
	c-15.337,0-27.772,12.435-27.772,27.772C87.832,114.429,100.266,126.861,115.604,126.861z M109.532,78.256v20.835v6.071h6.072
	h20.835c-2.632,9.02-10.979,15.629-20.835,15.629c-11.964,0-21.701-9.733-21.701-21.7C93.902,89.234,100.512,80.888,109.532,78.256z
	"/>
<path fill="#006837" d="M118.569,68.354v27.772h27.772C146.342,80.788,133.907,68.354,118.569,68.354z M124.641,75.291
	c7.092,2.07,12.692,7.671,14.762,14.763h-14.762V75.291L124.641,75.291z"/>
<rect x="152.24" y="112.318" fill="#FFFFFF" width="6.072" height="9.767"/>
<rect x="161.566" y="89.635" fill="#FFFFFF" width="6.072" height="32.451"/>
<rect x="170.896" y="73.147" fill="#FFFFFF" width="6.07" height="48.938"/>
<rect x="180.227" y="88.599" fill="#FFFFFF" width="6.074" height="33.486"/>
<rect x="189.557" y="104.359" fill="#FFFFFF" width="6.072" height="17.727"/>
<path fill="#FFFFFF" d="M219.145,215.09V44.582H93.584c-16.163,0-29.269,13.106-29.269,29.269v165.027h131.042L219.145,215.09z
	 M70.387,232.807V73.851c0-12.79,10.406-23.197,23.197-23.197h119.488v161.918l-20.232,20.234H70.387z"/>
</svg>
