<?xml version="1.0" encoding="utf-8"?>
<!-- Generator: Adobe Illustrator 16.0.0, SVG Export Plug-In . SVG Version: 6.00 Build 0)  -->
<!DOCTYPE svg PUBLIC "-//W3C//DTD SVG 1.1//EN" "http://www.w3.org/Graphics/SVG/1.1/DTD/svg11.dtd">
<svg version="1.1" id="Layer_1" xmlns="http://www.w3.org/2000/svg" xmlns:xlink="http://www.w3.org/1999/xlink" x="0px" y="0px"
	 width="283.46px" height="283.46px" viewBox="0 0 283.46 283.46" enable-background="new 0 0 283.46 283.46" xml:space="preserve">
<circle opacity="0.3" fill="#006837" cx="188.164" cy="106.962" r="23.305"/>
<circle opacity="0.3" fill="#006837" cx="102.164" cy="145.962" r="95.869"/>
<circle opacity="0.3" fill="#006837" cx="204.164" cy="212.962" r="57.834"/>
<path fill="#FFFFFF" d="M233.145,185.609H50.313c-14.128-0.009-25.588,11.438-25.597,25.565
	c-0.008,12.728,9.342,23.524,21.94,25.336v18.575c0,2.02,1.637,3.657,3.657,3.657c2.019,0,3.656-1.638,3.656-3.657v-18.283h175.52
	v18.283c0,2.02,1.637,3.657,3.656,3.657s3.656-1.638,3.656-3.657v-18.575c13.984-2.011,23.691-14.978,21.68-28.961
	C256.67,194.952,245.871,185.602,233.145,185.609z M233.145,229.489H50.313c-10.098,0-18.283-8.186-18.283-18.283
	s8.186-18.283,18.283-18.283h182.832c10.098,0,18.283,8.186,18.283,18.283S243.242,229.489,233.145,229.489z"/>
<path fill="#006837" d="M83.222,200.541c-6.059,0-10.97,4.911-10.97,10.97s4.911,10.97,10.97,10.97s10.97-4.911,10.97-10.97
	C94.186,205.455,89.278,200.548,83.222,200.541z M83.222,215.168c-2.02,0-3.657-1.638-3.657-3.657s1.637-3.656,3.657-3.656
	s3.657,1.637,3.657,3.656S85.242,215.168,83.222,215.168z"/>
<path fill="#006837" d="M112.476,200.541c-6.059,0-10.97,4.911-10.97,10.97s4.912,10.97,10.97,10.97
	c6.058,0,10.97-4.911,10.97-10.97C123.438,205.455,118.531,200.548,112.476,200.541z M112.476,215.168
	c-2.02,0-3.657-1.638-3.657-3.657s1.637-3.656,3.657-3.656c2.019,0,3.656,1.637,3.656,3.656S114.495,215.168,112.476,215.168z"/>
<path fill="#006837" d="M141.729,200.541c-6.058,0-10.97,4.911-10.97,10.97s4.912,10.97,10.97,10.97
	c6.059,0,10.971-4.911,10.971-10.97C152.691,205.455,147.784,200.548,141.729,200.541z M141.729,215.168
	c-2.019,0-3.657-1.638-3.657-3.657s1.638-3.656,3.657-3.656c2.02,0,3.656,1.637,3.656,3.656S143.748,215.168,141.729,215.168z"/>
<path fill="#006837" d="M170.982,200.541c-6.059,0-10.971,4.911-10.971,10.97s4.912,10.97,10.971,10.97
	c6.058,0,10.969-4.911,10.969-10.97C181.945,205.455,177.037,200.548,170.982,200.541z M170.982,215.168
	c-2.02,0-3.657-1.638-3.657-3.657s1.638-3.656,3.657-3.656c2.019,0,3.656,1.637,3.656,3.656S173.001,215.168,170.982,215.168z"/>
<path fill="#006837" d="M200.234,200.541c-6.059,0-10.969,4.911-10.969,10.97s4.91,10.97,10.969,10.97s10.971-4.911,10.971-10.97
	C211.199,205.455,206.291,200.548,200.234,200.541z M200.234,215.168c-2.02,0-3.656-1.638-3.656-3.657s1.637-3.656,3.656-3.656
	s3.658,1.637,3.658,3.656S202.254,215.168,200.234,215.168z"/>
<path fill="#006837" d="M52.141,198.408c-7.068,0-12.798,5.729-12.798,12.798s5.73,12.799,12.798,12.799s12.798-5.73,12.798-12.799
	C64.931,204.142,59.206,198.416,52.141,198.408z M52.141,216.691c-3.029,0-5.485-2.456-5.485-5.485s2.456-5.484,5.485-5.484
	s5.485,2.455,5.485,5.484S55.17,216.691,52.141,216.691z"/>
<path fill="#006837" d="M231.316,198.408c-7.068,0-12.799,5.729-12.799,12.798s5.73,12.799,12.799,12.799s12.799-5.73,12.799-12.799
	C244.107,204.142,238.381,198.416,231.316,198.408z M231.316,216.691c-3.029,0-5.484-2.456-5.484-5.485s2.455-5.484,5.484-5.484
	s5.484,2.455,5.484,5.484S234.346,216.691,231.316,216.691z"/>
<path fill="#FFFFFF" d="M92.894,76.198l-0.498,11.676c-0.345,3.201,2.106,4.338,5.471,4.338h3.35
	c2.451,11.835,7.714,22.906,15.344,32.278c6.097,7.315,15.083,11.608,24.605,11.755c6.755,0.015,13.293-2.387,18.431-6.772
	c10.937-9.228,18.403-23.405,22.257-37.26h3.732c3.367,0,5.813-1.137,5.475-4.338l-0.494-11.676
	c-0.345-3.161-0.125-5.794-2.79-5.794h-0.097h-2.264c0,0,2.785-19.819-19.496-35.073c0,0-3.831-9.619-11.143-10.615h-26.104
	c-7.308,0.996-11.14,10.615-11.14,10.615C95.257,50.586,98.038,70.405,98.038,70.405h-2.261C93.003,70.405,93.238,73,92.894,76.198z
	 M154.882,123.883c-3.821,3.269-8.688,5.06-13.715,5.049c-7.387-0.128-14.346-3.486-19.042-9.189
	c-5.97-7.349-10.316-15.877-12.753-25.026l6.771,3.134h51.17l5.992-2.772C169.206,107.013,162.666,117.314,154.882,123.883
	L154.882,123.883z M147.146,32.03l-1.892,9.142h-7.047l-1.896-9.142H147.146z M145.385,64.94c0,2.02-1.638,3.656-3.657,3.656
	s-3.656-1.638-3.656-3.657c0.001-2.021,1.638-3.657,3.658-3.656c0,0,0,0,0.001,0C143.749,61.285,145.384,62.922,145.385,64.94z
	 M100.149,77.719h6.302l-1.169-8.33c-0.022-0.153-1.94-15.476,16.385-28.022l1.821-1.217l0.824-2.069
	c0.936-2.387,2.567-4.436,4.682-5.884c0.008,0.305,0.032,0.607,0.072,0.908l2.153,10.394c0.483,2.813,2.878,4.896,5.731,4.986h1.121
	v6.124c-5.71,2.021-8.702,8.287-6.681,13.998c2.021,5.711,8.288,8.702,13.998,6.682c5.71-2.021,8.703-8.288,6.682-13.999
	c-1.105-3.122-3.563-5.578-6.686-6.683v-6.121h1.125c2.85-0.095,5.244-2.177,5.731-4.987l2.149-10.393
	c0.04-0.301,0.064-0.604,0.072-0.907c2.103,1.437,3.727,3.471,4.662,5.84l0.825,2.069l1.838,1.259
	c17.972,12.304,16.447,27.469,16.386,28.021l-1.381,8.331h6.519l0.304,7.18h-5.729l-1.461,0.677l-10.723,4.961h-47.951
	l-10.723-4.961l-1.461-0.677h-5.726L100.149,77.719z"/>
<path fill="#FFFFFF" d="M50.62,175.327c-0.004,0.073-0.007,0.15-0.007,0.224c0,0.032-0.002,0.417-0.032,2.745h7.313
	c0.021-1.699,0.029-2.351,0.03-2.587c1.814-25.908,37.164-32.574,39.925-33.054v35.641h7.313v-33.063l17.432,13.616
	c11.238,8.801,27.03,8.801,38.268-0.001l17.434-13.618v33.066h7.313v-35.509c5.536,1.062,37.565,8.27,39.204,33.023
	c0.012,0.162,0.033,0.322,0.064,0.48c0.004,0.017,0.111,0.611,0.254,2.005h7.352c-0.158-1.726-0.307-2.724-0.387-3.188
	c-2.344-32.561-44.408-39.423-46.139-39.688c-0.775-0.135-1.541-0.321-2.291-0.558c-0.309-0.172-0.641-0.297-0.984-0.372
	c-4.037-1.657-7.484-4.489-9.892-8.129c-1.578,1.944-3.265,3.798-5.05,5.553c1.984,2.616,4.379,4.893,7.093,6.739l-18.474,14.431
	c-8.593,6.73-20.669,6.73-29.262,0.001l-18.817-14.699c2.275-1.597,4.317-3.501,6.068-5.658c-1.182-1.1-2.299-2.265-3.349-3.49
	c-0.555-0.65-1.095-1.325-1.631-2.007c-2.958,4.245-7.448,7.177-12.525,8.178C95.045,135.686,52.794,142.576,50.62,175.327z"/>
<path fill="#006837" d="M141.729,53.971c-6.058,0-10.97,4.911-10.97,10.97s4.912,10.97,10.97,10.97
	c6.059,0,10.971-4.911,10.971-10.97C152.691,58.885,147.784,53.978,141.729,53.971z M141.729,68.598
	c-2.019,0-3.657-1.638-3.657-3.657s1.638-3.656,3.657-3.656c2.02,0,3.656,1.637,3.656,3.656S143.748,68.598,141.729,68.598z"/>
<circle opacity="0.3" fill="#006837" cx="207.831" cy="94.295" r="13.972"/>
</svg>
