<?xml version="1.0" encoding="utf-8"?>
<!-- Generator: Adobe Illustrator 16.0.0, SVG Export Plug-In . SVG Version: 6.00 Build 0)  -->
<!DOCTYPE svg PUBLIC "-//W3C//DTD SVG 1.1//EN" "http://www.w3.org/Graphics/SVG/1.1/DTD/svg11.dtd">
<svg version="1.1" id="Layer_1" xmlns="http://www.w3.org/2000/svg" xmlns:xlink="http://www.w3.org/1999/xlink" x="0px" y="0px"
	 width="283.46px" height="283.46px" viewBox="0 0 283.46 283.46" enable-background="new 0 0 283.46 283.46" xml:space="preserve">
<circle opacity="0.3" fill="#006837" cx="104.164" cy="185.962" r="23.305"/>
<circle opacity="0.3" fill="#006837" cx="69.164" cy="101.962" r="62.827"/>
<circle opacity="0.3" fill="#006837" cx="204.164" cy="212.962" r="57.834"/>
<circle opacity="0.3" fill="#006837" cx="240.831" cy="69.295" r="13.972"/>
<path fill="#FFFFFF" d="M235.351,245.089H48.11c-3.04,0-5.507-2.478-5.507-5.507V118.427c0-3.04,2.467-5.507,5.507-5.507h187.24
	c3.029,0,5.507,2.467,5.507,5.507v121.155C240.857,242.611,238.38,245.089,235.351,245.089z M53.617,234.075h176.227V123.934H53.617
	V234.075z"/>
<path fill="#006837" d="M103.181,190.019H70.139c-3.04,0-5.507-2.479-5.507-5.507v-44.057c0-3.04,2.467-5.507,5.507-5.507h33.042
	c3.04,0,5.508,2.467,5.508,5.507v44.057C108.688,187.54,106.221,190.019,103.181,190.019z M75.646,179.004h22.028v-33.042H75.646
	V179.004z"/>
<path fill="#006837" d="M213.322,190.019H180.28c-3.029,0-5.508-2.479-5.508-5.507v-44.057c0-3.04,2.479-5.507,5.508-5.507h33.042
	c3.029,0,5.507,2.467,5.507,5.507v44.057C218.829,187.54,216.352,190.019,213.322,190.019z M185.787,179.004h22.028v-33.042h-22.028
	V179.004z"/>
<path fill="#FFFFFF" d="M158.252,245.089h-33.043c-3.04,0-5.507-2.478-5.507-5.507v-77.099c0-3.029,2.467-5.508,5.507-5.508h33.043
	c3.028,0,5.507,2.479,5.507,5.508v77.099C163.759,242.611,161.28,245.089,158.252,245.089z M130.717,234.075h22.027V167.99h-22.027
	V234.075z"/>
<path fill="#FFFFFF" d="M268.393,123.934H15.068c-3.04,0-5.507-2.467-5.507-5.507V85.384c0-3.04,2.467-5.507,5.507-5.507h253.325
	c3.029,0,5.508,2.467,5.508,5.507v33.043C273.9,121.467,271.422,123.934,268.393,123.934z M20.575,112.92h242.311V90.892H20.575
	V112.92z"/>
<path fill="#FFFFFF" d="M224.337,90.892H59.124c-3.039,0-5.507-2.468-5.507-5.508V52.342c0-3.04,2.468-5.507,5.507-5.507h165.213
	c3.028,0,5.507,2.467,5.507,5.507v33.042C229.844,88.424,227.365,90.892,224.337,90.892z M64.632,79.877h154.197V57.849H64.632
	V79.877z"/>
</svg>
