<?xml version="1.0" encoding="utf-8"?>
<!-- Generator: Adobe Illustrator 16.0.0, SVG Export Plug-In . SVG Version: 6.00 Build 0)  -->
<!DOCTYPE svg PUBLIC "-//W3C//DTD SVG 1.1//EN" "http://www.w3.org/Graphics/SVG/1.1/DTD/svg11.dtd">
<svg version="1.1" id="Layer_1" xmlns="http://www.w3.org/2000/svg" xmlns:xlink="http://www.w3.org/1999/xlink" x="0px" y="0px"
	 width="283.46px" height="283.46px" viewBox="0 0 283.46 283.46" enable-background="new 0 0 283.46 283.46" xml:space="preserve">
<circle opacity="0.3" fill="#006837" cx="120.164" cy="70.962" r="39.987"/>
<circle opacity="0.3" fill="#006837" cx="51.164" cy="235.962" r="33.495"/>
<circle opacity="0.3" fill="#006837" cx="207.164" cy="201.962" r="57.834"/>
<circle opacity="0.3" fill="#006837" cx="141.831" cy="141.295" r="13.972"/>
<path fill="#FFFFFF" d="M260.258,216.075v-28.263l-10.826-2.766c-0.075-0.183-0.149-0.366-0.228-0.546l5.698-9.605l-19.985-19.985
	l-9.606,5.698c-0.184-0.078-0.366-0.152-0.546-0.228L222,149.56h-28.263l-2.766,10.825c-0.183,0.075-0.366,0.15-0.547,0.228
	l-9.604-5.698l-19.986,19.985l5.699,9.606c-0.079,0.184-0.153,0.366-0.229,0.547l-10.82,2.765v28.262l10.824,2.766
	c0.075,0.183,0.15,0.367,0.229,0.547l-5.699,9.604l19.986,19.985l9.605-5.697c0.185,0.078,0.367,0.152,0.547,0.228l2.765,10.82
	h28.264l2.766-10.824c0.183-0.075,0.366-0.15,0.546-0.229l9.605,5.699l19.985-19.986l-5.697-9.605
	c0.078-0.184,0.151-0.366,0.227-0.547L260.258,216.075z M245.503,227.814l-11.765,11.765l-7.997-4.745l-1.8,0.86
	c-1.16,0.552-2.346,1.048-3.566,1.478l-1.886,0.671l-2.297,9.007h-16.639l-2.299-9.007l-1.885-0.671
	c-1.22-0.426-2.41-0.924-3.567-1.478l-1.799-0.86l-7.998,4.745l-11.765-11.765l4.745-7.998l-0.86-1.799
	c-0.551-1.16-1.048-2.347-1.478-3.567l-0.67-1.886l-9.012-2.296v-16.641l9.007-2.298l0.671-1.886c0.426-1.22,0.924-2.41,1.478-3.566
	l0.861-1.8l-4.745-7.997l11.764-11.765l7.998,4.745l1.799-0.861c1.16-0.551,2.347-1.047,3.567-1.478l1.886-0.671l2.297-9.009h16.64
	l2.298,9.007l1.886,0.671c1.22,0.426,2.41,0.923,3.566,1.478l1.8,0.86l7.997-4.745l11.765,11.765l-4.745,7.997l0.861,1.8
	c0.551,1.16,1.048,2.347,1.479,3.566l0.669,1.887l9.01,2.296v16.64l-9.007,2.299l-0.67,1.885c-0.427,1.22-0.924,2.411-1.478,3.567
	l-0.861,1.799L245.503,227.814z"/>
<path fill="#006837" d="M207.87,172.011c-16.505,0-29.935,13.43-29.935,29.936c0,16.505,13.43,29.935,29.935,29.935
	c16.506,0,29.936-13.43,29.936-29.935C237.806,185.44,224.376,172.011,207.87,172.011z M207.87,224.397
	c-12.382,0-22.451-10.069-22.451-22.451c0-12.383,10.069-22.451,22.451-22.451c12.383,0,22.451,10.068,22.451,22.451
	C230.321,214.328,220.253,224.397,207.87,224.397z"/>
<path fill="#006837" d="M207.87,186.979c-8.254,0-14.967,6.713-14.967,14.968s6.713,14.968,14.967,14.968
	c8.255,0,14.969-6.713,14.969-14.968S216.125,186.979,207.87,186.979z M207.87,209.43c-4.127,0-7.483-3.355-7.483-7.483
	c0-4.127,3.356-7.484,7.483-7.484c4.128,0,7.484,3.357,7.484,7.484C215.354,206.074,211.998,209.43,207.87,209.43z"/>
<path fill="#FFFFFF" d="M123.022,85.692c1.254,3.675,3.436,6.915,6.268,9.459v3.174l-17.793,6.67
	c-7.263,2.721-12.142,9.76-12.142,17.516v19.563h89.806v-19.563c0-7.756-4.88-14.795-12.139-17.519l-17.797-6.672v-3.169
	c2.832-2.541,5.014-5.781,6.268-9.459c7.05-1.208,12.442-7.327,12.442-14.714V56.011c0-18.567-15.106-33.678-33.678-33.678
	c-18.571,0-33.678,15.111-33.678,33.678v14.967C110.58,78.366,115.973,84.484,123.022,85.692z M151.742,99.877l-7.484,12.472
	l-7.484-12.472v-0.272c2.347,0.834,4.858,1.309,7.484,1.309c2.627,0,5.138-0.479,7.484-1.309V99.877z M131.426,105.513l7.544,12.569
	l-7.495,3.746l-4.842-14.519L131.426,105.513z M181.677,122.512v12.079h-74.838v-12.079c0-4.654,2.926-8.876,7.285-10.51
	l5.501-2.063l7.48,22.445l17.152-8.577l17.152,8.577l7.48-22.445l5.505,2.066C178.751,113.636,181.677,117.858,181.677,122.512z
	 M161.882,107.309l-4.841,14.523l-7.495-3.746l7.544-12.573L161.882,107.309z M144.258,93.43c-8.255,0-14.967-6.712-14.967-14.967
	V63.241c5.478-0.576,10.645-2.574,14.967-5.972c4.322,3.401,9.489,5.396,14.968,5.972v15.222
	C159.226,86.718,152.513,93.43,144.258,93.43z M166.709,77.422V64.54c2.227,1.298,3.742,3.685,3.742,6.443
	S168.936,76.124,166.709,77.422z M144.258,29.818c14.439,0,26.193,11.75,26.193,26.193v2.081c-2.212-1.287-4.744-2.081-7.484-2.081
	h-0.644c-5.825,0-11.304-2.268-15.419-6.388l-2.646-2.649l-2.646,2.649c-4.12,4.12-9.595,6.388-15.42,6.388h-0.644
	c-2.74,0-5.272,0.793-7.484,2.081v-2.081C118.064,41.568,129.818,29.818,144.258,29.818z M121.806,64.536v12.883
	c-2.226-1.298-3.742-3.685-3.742-6.443C118.064,68.217,119.58,65.833,121.806,64.536z"/>
<path fill="#FFFFFF" d="M28.258,254.332h74.838v-97.289H28.258V254.332z M35.742,164.526h59.871v82.323H35.742V164.526z"/>
<rect x="43.226" y="172.011" fill="#FFFFFF" width="44.902" height="7.484"/>
<rect x="43.226" y="186.979" fill="#FFFFFF" width="7.484" height="7.483"/>
<rect x="58.193" y="186.979" fill="#FFFFFF" width="29.935" height="7.483"/>
<rect x="43.226" y="201.946" fill="#FFFFFF" width="44.902" height="7.483"/>
<rect x="43.226" y="216.914" fill="#FFFFFF" width="44.902" height="7.483"/>
<rect x="80.646" y="231.881" fill="#FFFFFF" width="7.483" height="7.484"/>
<rect x="43.226" y="231.881" fill="#FFFFFF" width="29.935" height="7.484"/>
<polygon fill="#006837" points="128.194,189.624 122.903,184.332 105.29,201.946 122.903,219.56 128.194,214.268 119.613,205.688 
	148,205.688 148,198.204 119.613,198.204 "/>
<path fill="#006837" d="M69.419,82.205c0-2.062,1.676-3.742,3.742-3.742h17.16l-8.58,8.581l5.291,5.29l17.614-17.613L87.032,57.107
	l-5.291,5.292l8.58,8.58h-17.16c-6.189,0-11.226,5.037-11.226,11.226v67.355h7.484V82.205z"/>
<path fill="#006837" d="M207.87,82.205v47.096l-8.579-8.581l-5.293,5.291l17.614,17.613l17.613-17.613l-5.293-5.291l-8.578,8.581
	V82.205c0-6.189-5.037-11.226-11.227-11.226h-18.709v7.484h18.709C206.193,78.463,207.87,80.143,207.87,82.205z"/>
</svg>
