<?xml version="1.0" encoding="utf-8"?>
<!-- Generator: Adobe Illustrator 16.0.0, SVG Export Plug-In . SVG Version: 6.00 Build 0)  -->
<!DOCTYPE svg PUBLIC "-//W3C//DTD SVG 1.1//EN" "http://www.w3.org/Graphics/SVG/1.1/DTD/svg11.dtd">
<svg version="1.1" id="Layer_1" xmlns="http://www.w3.org/2000/svg" xmlns:xlink="http://www.w3.org/1999/xlink" x="0px" y="0px"
	 width="283.46px" height="283.46px" viewBox="0 0 283.46 283.46" enable-background="new 0 0 283.46 283.46" xml:space="preserve">
<circle opacity="0.3" fill="#006837" cx="64.164" cy="141.962" r="39.987"/>
<circle opacity="0.3" fill="#006837" cx="151.164" cy="79.962" r="62.828"/>
<circle opacity="0.3" fill="#006837" cx="204.164" cy="212.962" r="57.834"/>
<circle opacity="0.3" fill="#006837" cx="30.831" cy="176.295" r="13.972"/>
<rect x="109.535" y="192.194" fill="#006837" width="14.962" height="7.481"/>
<rect x="131.979" y="192.194" fill="#006837" width="11.222" height="7.481"/>
<rect x="150.682" y="192.194" fill="#006837" width="11.223" height="7.481"/>
<rect x="169.385" y="192.194" fill="#006837" width="11.222" height="7.481"/>
<rect x="188.089" y="192.194" fill="#006837" width="11.222" height="7.481"/>
<rect x="206.791" y="192.194" fill="#006837" width="11.222" height="7.481"/>
<rect x="225.495" y="192.194" fill="#006837" width="11.222" height="7.481"/>
<rect x="109.535" y="207.157" fill="#006837" width="18.703" height="7.481"/>
<rect x="135.719" y="207.157" fill="#006837" width="11.221" height="7.481"/>
<rect x="154.422" y="207.157" fill="#006837" width="11.223" height="7.481"/>
<rect x="173.126" y="207.157" fill="#006837" width="11.222" height="7.481"/>
<rect x="191.828" y="207.157" fill="#006837" width="11.223" height="7.481"/>
<rect x="210.532" y="207.157" fill="#006837" width="26.185" height="7.481"/>
<rect x="109.535" y="222.119" fill="#006837" width="22.444" height="7.482"/>
<rect x="139.46" y="222.119" fill="#006837" width="11.222" height="7.482"/>
<rect x="158.163" y="222.119" fill="#006837" width="11.222" height="7.482"/>
<rect x="176.866" y="222.119" fill="#006837" width="11.223" height="7.482"/>
<rect x="195.569" y="222.119" fill="#006837" width="11.222" height="7.482"/>
<rect x="214.273" y="222.119" fill="#006837" width="7.48" height="7.482"/>
<rect x="109.535" y="237.082" fill="#006837" width="14.962" height="7.481"/>
<rect x="131.979" y="237.082" fill="#006837" width="7.481" height="7.481"/>
<rect x="146.94" y="237.082" fill="#006837" width="44.888" height="7.481"/>
<rect x="199.311" y="237.082" fill="#006837" width="7.48" height="7.481"/>
<rect x="214.273" y="237.082" fill="#006837" width="7.48" height="7.481"/>
<rect x="229.235" y="237.082" fill="#006837" width="7.481" height="7.481"/>
<rect x="229.235" y="222.119" fill="#006837" width="7.481" height="7.482"/>
<path fill="#FFFFFF" d="M251.439,63.815c-0.042-0.12-0.071-0.235-0.127-0.351c-0.184-0.396-0.411-0.774-0.734-1.096l-26.184-26.185
	c-0.321-0.322-0.703-0.554-1.099-0.737c-0.11-0.049-0.222-0.083-0.338-0.12c-0.322-0.112-0.651-0.176-0.991-0.198
	c-0.07-0.004-0.138-0.041-0.213-0.041H117.016c-2.064,0-3.74,1.675-3.74,3.74v29.925H94.572c-10.313,0-18.703,8.39-18.703,18.703
	v14.963H60.907V77.783l10.126-10.125c1.294-1.295,1.462-3.333,0.4-4.819L52.729,36.655c-1.407-1.967-4.683-1.967-6.09,0
	L27.937,62.839c-1.063,1.485-0.894,3.524,0.4,4.819l10.126,10.125v24.636h-7.481c-2.065,0-3.741,1.676-3.741,3.741v41.147v74.813
	c0,2.064,1.675,3.741,3.741,3.741h63.59v11.222h-7.481c-6.187,0-11.222,5.035-11.222,11.222c0,2.062-1.68,3.741-3.741,3.741H42.204
	v7.48h29.924c6.188,0,11.222-5.035,11.222-11.222c0-2.061,1.68-3.74,3.741-3.74h7.481v11.223c0,2.063,1.676,3.739,3.741,3.739
	h149.626c2.064,0,3.741-1.676,3.741-3.739v-74.813V65.012c0-0.082-0.042-0.153-0.049-0.235
	C251.612,64.448,251.548,64.13,251.439,63.815z M238.909,61.271h-13.414V47.858L238.909,61.271z M120.756,42.569h97.256v22.443
	c0,2.065,1.676,3.741,3.741,3.741h22.443v108.479h-37.406v-29.926V106.16c0-2.065-1.677-3.741-3.74-3.741h-44.888V87.456
	c0-10.313-8.391-18.703-18.703-18.703h-18.704V42.569z M83.35,87.456c0-6.187,5.035-11.222,11.222-11.222h22.444h22.444
	c6.187,0,11.222,5.035,11.222,11.222v14.963H143.2V87.456c0-2.064-1.676-3.74-3.74-3.74H94.572c-2.064,0-3.74,1.676-3.74,3.74
	v14.963H83.35V87.456z M120.756,102.419V91.197h14.963v11.222H120.756z M98.313,102.419V91.197h14.963v11.222H98.313z
	 M45.944,50.503v10.769h7.481V50.503l10.077,14.105l-7.885,7.885H43.752l-7.886-7.885L45.944,50.503z M45.944,79.975h7.481v22.444
	h-7.481V79.975z M34.722,109.9h7.481h14.962h22.443h14.962h44.888h14.962h44.889v35.857l-9.03,9.03h-58.302v-11.222
	c0-2.065-1.676-3.741-3.741-3.741h-22.444c-2.065,0-3.741,1.676-3.741,3.741v11.222H43.752l-9.03-9.03V109.9z M124.497,154.788
	h-14.962v-7.481h14.962V154.788z M34.722,218.379v-62.043l4.836,4.839c0.7,0.701,1.653,1.095,2.645,1.095h63.59h22.444h63.59
	c0.992,0,1.945-0.394,2.646-1.097l4.837-4.837v20.896H98.313c-2.064,0-3.741,1.675-3.741,3.74v37.406H34.722z M244.197,252.045
	H102.053v-29.926v-37.406h100.998h41.146V252.045z"/>
<rect x="214.273" y="102.419" fill="#006837" width="22.443" height="7.481"/>
<rect x="214.273" y="117.381" fill="#006837" width="22.443" height="7.481"/>
<rect x="214.273" y="132.344" fill="#006837" width="22.443" height="7.481"/>
<rect x="214.273" y="147.307" fill="#006837" width="22.443" height="7.481"/>
<rect x="214.273" y="162.27" fill="#006837" width="22.443" height="7.48"/>
<path fill="#006837" d="M176.866,79.975c0.962,0,1.923-0.37,2.648-1.096l12.595-12.594l16.088,12.871l4.672-5.843l-18.703-14.962
	c-1.485-1.193-3.64-1.07-4.982,0.277L176.59,71.222l-16.089-12.872l-4.672,5.843l18.702,14.962
	C175.217,79.706,176.043,79.975,176.866,79.975z"/>
<rect x="169.385" y="87.456" fill="#006837" width="67.332" height="7.481"/>
<rect x="42.204" y="203.417" fill="#006837" width="7.481" height="7.48"/>
<rect x="57.166" y="203.417" fill="#006837" width="7.481" height="7.48"/>
<rect x="72.128" y="203.417" fill="#006837" width="7.481" height="7.48"/>
</svg>
