<?xml version="1.0" encoding="utf-8"?>
<!-- Generator: Adobe Illustrator 16.0.0, SVG Export Plug-In . SVG Version: 6.00 Build 0)  -->
<!DOCTYPE svg PUBLIC "-//W3C//DTD SVG 1.1//EN" "http://www.w3.org/Graphics/SVG/1.1/DTD/svg11.dtd">
<svg version="1.1" id="Layer_1" xmlns="http://www.w3.org/2000/svg" xmlns:xlink="http://www.w3.org/1999/xlink" x="0px" y="0px"
	 width="283.46px" height="283.46px" viewBox="0 0 283.46 283.46" enable-background="new 0 0 283.46 283.46" xml:space="preserve">
<circle opacity="0.3" fill="#006837" cx="94.164" cy="102.962" r="39.987"/>
<circle opacity="0.3" fill="#006837" cx="65.164" cy="128.962" r="33.495"/>
<circle opacity="0.3" fill="#006837" cx="211.164" cy="161.962" r="95.168"/>
<circle opacity="0.3" fill="#006837" cx="39.831" cy="205.295" r="13.972"/>
<circle opacity="0.3" fill="#006837" cx="201.831" cy="63.295" r="13.972"/>
<path fill="#006837" d="M187.605,87.6c5.42,0,9.83-4.41,9.83-9.83s-4.41-9.831-9.83-9.831s-9.83,4.411-9.83,9.831
	S182.186,87.6,187.605,87.6z M187.605,74.493c1.805,0,3.277,1.471,3.277,3.277c0,1.805-1.473,3.277-3.277,3.277
	c-1.807,0-3.277-1.472-3.277-3.277C184.328,75.964,185.799,74.493,187.605,74.493z"/>
<path fill="#FFFFFF" d="M216.688,107.261l-8.33-19.782c1.387-2.952,2.186-6.236,2.186-9.709c0-9.126-5.371-17.003-13.107-20.693
	V41.725c0-3.614-2.939-6.554-6.553-6.554h-6.555c-3.613,0-6.553,2.939-6.553,6.554v15.352c-7.736,3.69-13.107,11.567-13.107,20.693
	c0,3.473,0.799,6.757,2.186,9.709l-8.33,19.782H141.73v-72.09h-39.321v72.09h-6.554V63.669L79.47,39.093L63.086,63.669v43.591
	H40.149v102.938l28.135,28.135h175.027V107.261H216.688z M223.289,139.839c0.24,0.563,0.361,1.164,0.361,1.78v0.359
	c0,2.541-2.064,4.604-4.602,4.604c-1.854,0-3.52-1.104-4.24-2.811L196,99.095c3.002-1.186,5.699-2.975,7.93-5.236L223.289,139.839z
	 M223.65,172.797v32.768h-39.322v-32.768H223.65z M187.605,100.707c0.648,0,1.287-0.042,1.924-0.098l7.451,17.698
	c-5.922,2.638-12.828,2.638-18.75,0l7.451-17.698C186.318,100.665,186.957,100.707,187.605,100.707z M184.328,41.725h6.555v13.369
	c-1.076-0.154-2.164-0.262-3.277-0.262c-1.115,0-2.203,0.108-3.277,0.262V41.725z M187.605,61.385
	c9.033,0,16.385,7.35,16.385,16.384s-7.352,16.384-16.385,16.384c-9.035,0-16.385-7.35-16.385-16.384S178.57,61.385,187.605,61.385z
	 M179.211,99.095l-18.813,44.677c-0.719,1.707-2.383,2.811-4.238,2.811c-2.535,0-4.6-2.064-4.6-4.6v-0.361
	c0-0.615,0.121-1.215,0.361-1.782l19.357-45.977C173.508,96.12,176.209,97.909,179.211,99.095z M59.81,166.243h29.491v19.661h16.384
	v6.554H59.81V166.243z M95.855,179.351v-19.661H59.81v-6.554h19.66v-3.276c0-5.42,4.411-9.83,9.831-9.83h3.276v-13.108h6.554v29.492
	h39.322v-29.492h11.792l-4.363,10.368c-0.58,1.377-0.875,2.832-0.875,4.33v0.359c0,4.505,2.699,8.375,6.553,10.135v9.397
	c-1.936-1.127-4.154-1.821-6.553-1.821c-7.229,0-13.108,5.879-13.108,13.107s5.879,13.107,13.108,13.107
	c7.229,0,13.107-5.879,13.107-13.107v-19.852c2.572-0.455,4.885-1.781,6.553-3.755v43.268h-52.429v-13.107H95.855z M59.81,146.582
	v-19.661h26.214v6.885c-6.409,1.304-11.472,6.367-12.776,12.776H59.81z M105.685,126.921H131.9v22.938h-26.215V126.921z
	 M151.561,172.797c0,3.614-2.939,6.554-6.555,6.554c-3.614,0-6.552-2.939-6.552-6.554s2.938-6.554,6.552-6.554
	C148.621,166.243,151.561,169.183,151.561,172.797z M108.961,41.725h26.215v6.554h-13.107v6.553h13.107v6.554h-6.554v6.554h6.554
	v6.554h-13.107v6.554h13.107V87.6h-6.554v6.554h6.554v13.107h-26.215V41.725z M82.748,107.261V67.939h6.554v39.322H82.748z
	 M86.457,61.385H72.488l6.982-10.476L86.457,61.385z M69.64,67.939h6.554v39.322H69.64V67.939z M66.364,227.146l-15.028-15.028
	h15.028V227.146z M236.758,231.779H72.917v-26.215H46.703v-91.75h109.063l-2.76,6.553h-99.75v78.644h117.964v-64.059l4.461-10.591
	c3.754,1.671,7.811,2.559,11.924,2.559c4.111,0,8.168-0.888,11.924-2.559l9.24,21.948c1.488,3.533,4.645,5.983,8.326,6.636v13.297
	h-39.32v45.875h52.428v-45.875h-6.553v-14.13c3.854-1.76,6.553-5.629,6.553-10.135v-0.359c0-1.498-0.295-2.953-0.875-4.33
	l-9.883-23.475h17.313V231.779z"/>
<path fill="#006837" d="M79.47,225.226h72.09v-19.661H79.47V225.226z M118.792,218.672h-6.554v-6.554h6.554V218.672z
	 M125.346,212.118h6.554v6.554h-6.554V212.118z M105.685,218.672h-6.554v-6.554h6.554V218.672z M145.006,218.672h-6.552v-6.554
	h6.552V218.672z M86.024,212.118h6.554v6.554h-6.554V212.118z"/>
<rect x="158.113" y="218.672" fill="#006837" width="72.09" height="6.554"/>
</svg>
