<?xml version="1.0" encoding="utf-8"?>
<!-- Generator: Adobe Illustrator 16.0.0, SVG Export Plug-In . SVG Version: 6.00 Build 0)  -->
<!DOCTYPE svg PUBLIC "-//W3C//DTD SVG 1.1//EN" "http://www.w3.org/Graphics/SVG/1.1/DTD/svg11.dtd">
<svg version="1.1" id="Layer_1" xmlns="http://www.w3.org/2000/svg" xmlns:xlink="http://www.w3.org/1999/xlink" x="0px" y="0px"
	 width="283.46px" height="283.46px" viewBox="0 0 283.46 283.46" enable-background="new 0 0 283.46 283.46" xml:space="preserve">
<circle opacity="0.3" fill="#006837" cx="150.164" cy="221.962" r="39.987"/>
<circle opacity="0.3" fill="#006837" cx="48.164" cy="190.962" r="33.495"/>
<circle opacity="0.3" fill="#006837" cx="206.164" cy="217.962" r="57.834"/>
<circle opacity="0.3" fill="#006837" cx="76.831" cy="103.295" r="13.972"/>
<path fill="#FFFFFF" d="M179.126,248.73H56.84c-10.553,0-19.107-8.555-19.107-19.107V61.48c0-10.552,8.555-19.107,19.107-19.107
	h38.214c2.11,0,3.822,1.711,3.822,3.821V61.48h38.214v-7.643c0-6.331,5.133-11.464,11.464-11.464h30.572
	c10.552,0,19.106,8.555,19.106,19.107v55.908c-0.001,1.533-0.919,2.917-2.331,3.516c-1.405,0.591-3.026,0.291-4.127-0.764
	c-4.085-3.942-8.866-7.091-14.1-9.286c-3.475-1.418-7.105-2.419-10.816-2.981h-0.725c-0.472-0.026-0.943-0.026-1.414,0
	c-1.554-0.278-3.124-0.457-4.7-0.535c-25.326,0.026-45.837,20.577-45.812,45.903c0.026,25.326,20.577,45.838,45.903,45.811
	c6.029-0.006,11.997-1.199,17.563-3.516c2.532-1.045,4.964-2.324,7.261-3.82c1.51-1.012,3.522-0.82,4.814,0.459l7.375,7.373
	c0.715,0.723,1.114,1.697,1.108,2.715v27.361C198.232,240.176,189.678,248.73,179.126,248.73z M56.84,50.016
	c-6.331,0-11.464,5.133-11.464,11.464v168.143c0,6.332,5.133,11.465,11.464,11.465l0,0h122.286c6.331,0,11.464-5.133,11.464-11.465
	l0,0v-25.834l-4.127-4.088c-1.899,1.09-3.865,2.061-5.886,2.904c-27.288,11.328-58.595-1.609-69.924-28.898
	s1.609-58.595,28.897-69.924c6.488-2.693,13.444-4.083,20.468-4.089c1.813-0.02,3.626,0.082,5.426,0.306
	c0.535-0.033,1.071-0.033,1.605,0h0.421h0.534c4.317,0.66,8.539,1.84,12.572,3.516c3.542,1.544,6.9,3.48,10.013,5.771V61.48
	c0-6.332-5.133-11.464-11.465-11.464h-30.571c-2.11,0-3.821,1.711-3.821,3.821v11.464c0,2.11-1.711,3.822-3.821,3.822H95.054
	c-2.11,0-3.821-1.711-3.821-3.822V50.016H56.84z"/>
<path fill="#FFFFFF" d="M179.126,233.443H56.84c-2.11,0-3.821-1.709-3.821-3.82V61.48c0-2.11,1.711-3.821,3.821-3.821h38.214
	c2.11,0,3.822,1.711,3.822,3.821h38.214c0-2.11,1.711-3.821,3.821-3.821h38.215c2.11,0,3.821,1.711,3.821,3.821v45.857
	c0.002,1.271-0.629,2.46-1.682,3.172c-1.064,0.708-2.412,0.837-3.591,0.344c-3.475-1.418-7.105-2.419-10.815-2.981
	c-0.72-0.139-1.447-0.228-2.179-0.268c-1.546-0.189-3.104-0.279-4.662-0.268c-25.326,0.026-45.837,20.577-45.812,45.903
	s20.577,45.836,45.903,45.811c6.029-0.006,11.997-1.199,17.563-3.516c1.168-0.479,2.499-0.35,3.553,0.344
	c1.068,0.703,1.714,1.895,1.72,3.172v30.572C182.947,231.734,181.236,233.443,179.126,233.443z M60.661,225.801h114.643v-21.322
	c-4.963,1.461-10.11,2.207-15.285,2.215c-29.548,0-53.5-23.951-53.5-53.5c0-29.546,23.952-53.499,53.5-53.499
	c1.813-0.02,3.626,0.082,5.426,0.306c0.911,0.061,1.817,0.175,2.714,0.344c2.42,0.353,4.81,0.889,7.146,1.605V65.301h-30.571
	c0,2.11-1.711,3.822-3.821,3.822H95.054c-2.11,0-3.821-1.711-3.821-3.822H60.661V225.801z"/>
<path fill="#006837" d="M79.539,106.114L79.539,106.114c-1.016,0.006-1.992-0.393-2.713-1.108l-8.102-8.102
	c-1.498-1.499-1.498-3.928,0-5.427s3.928-1.499,5.426,0l5.389,5.427l13.489-13.528c1.499-1.498,3.928-1.498,5.427,0
	c1.498,1.499,1.498,3.928,0,5.427l-16.203,16.203C81.531,105.721,80.555,106.12,79.539,106.114z"/>
<path fill="#006837" d="M79.539,159.615L79.539,159.615c-1.016,0.006-1.992-0.395-2.713-1.109l-8.102-8.1
	c-1.498-1.5-1.498-3.93,0-5.428s3.928-1.498,5.426,0l5.389,5.428l13.489-13.529c1.499-1.499,3.928-1.499,5.427,0
	c1.498,1.499,1.498,3.929,0,5.427l-16.203,16.202C81.531,159.221,80.555,159.621,79.539,159.615z"/>
<path fill="#006837" d="M91.232,218.158H72.126c-2.111,0-3.822-1.711-3.822-3.82V195.23c0-2.111,1.711-3.822,3.822-3.822h19.106
	c2.11,0,3.821,1.711,3.821,3.822v19.107C95.054,216.447,93.343,218.158,91.232,218.158z M75.947,210.516h11.464v-11.465H75.947
	V210.516z"/>
<path fill="#FFFFFF" d="M231.326,238.564c-3.81-0.01-7.461-1.52-10.165-4.203l-34.66-34.66c-1.899,1.09-3.865,2.061-5.885,2.904
	c-0.612,0.268-1.3,0.496-2.063,0.764l-0.611,0.268h-0.498c-1.652,0.58-3.336,1.064-5.044,1.453
	c-1.574,0.385-3.169,0.678-4.777,0.879c-0.771,0.146-1.549,0.248-2.331,0.305h-2.483l-2.789,0.42c-29.548,0-53.5-23.951-53.5-53.5
	c0-29.546,23.952-53.499,53.5-53.499h2.713h1.108h1.414c0.687,0,1.528,0.191,2.368,0.306c1.556,0.214,3.099,0.508,4.625,0.879
	c1.223,0.268,2.368,0.573,3.553,0.955l1.987,0.65l0.917,0.382c0.458,0,1.147,0.382,1.835,0.688
	c19.99,8.392,32.991,27.96,32.979,49.64c0.008,9.111-2.321,18.07-6.765,26.025l34.737,34.736c5.635,5.619,5.649,14.738,0.033,20.375
	C238.821,237.039,235.153,238.563,231.326,238.564z M187.533,189.957l39.017,38.979c2.638,2.627,6.906,2.619,9.534-0.02
	s2.619-6.906-0.021-9.535l-38.978-39.016l1.643-2.6c13.581-21.377,7.261-49.716-14.117-63.296c-2.206-1.401-4.527-2.611-6.938-3.617
	l-1.682-0.65l-2.484-0.841c-0.917-0.306-1.91-0.535-2.904-0.802c-0.993-0.268-2.637-0.535-4.014-0.726l-1.796-0.229h-1.376h-0.878
	l-2.521-0.268c-25.326,0-45.857,20.531-45.857,45.856c0,25.328,20.531,45.857,45.857,45.857h2.331h2.14
	c0.655-0.045,1.306-0.135,1.949-0.268c1.399-0.17,2.79-0.412,4.165-0.725c1.452-0.346,2.866-0.766,4.279-1.223l0.803-0.307
	l1.911-0.764c2.565-1.029,5.022-2.311,7.337-3.822L187.533,189.957z"/>
<path fill="#020202" d="M160.019,191.408c-21.105,0-38.215-17.109-38.215-38.215c0-21.104,17.109-38.213,38.215-38.213
	c3.807,0.007,7.592,0.574,11.235,1.682l0.84,0.306h0.994l0.534,0.535l0.843,0.344c0.398,0.123,0.783,0.289,1.146,0.497
	c0.433,0.165,0.854,0.356,1.262,0.573c0.688,0.306,1.337,0.688,1.987,1.032c0.827,0.455,1.631,0.953,2.407,1.49
	c17.538,11.741,22.238,35.476,10.499,53.013c-2.779,4.152-6.347,7.721-10.499,10.5c-0.784,0.545-1.6,1.043-2.446,1.49
	c-0.611,0.344-1.261,0.725-1.872,0.992c-0.495,0.262-1.006,0.492-1.528,0.688c-0.299,0.182-0.62,0.324-0.955,0.422l-0.765,0.305
	l-0.497,0.535h-1.07l-0.802,0.268C167.668,190.797,163.855,191.389,160.019,191.408z M160.019,122.623
	c-16.885,0-30.571,13.687-30.571,30.57c0,16.885,13.687,30.572,30.571,30.572c3.033,0.002,6.049-0.463,8.942-1.375l1.834-0.611
	l0.879-0.346l0.993-0.418l0.765-0.383l0.458-0.229c0.414-0.166,0.811-0.371,1.186-0.613c0.763-0.42,1.337-0.803,1.911-1.184l0,0
	c14.033-9.387,17.803-28.373,8.417-42.408c-2.227-3.331-5.087-6.191-8.417-8.418c-0.574-0.382-1.148-0.764-1.759-1.108
	c-0.426-0.266-0.873-0.496-1.338-0.688l-0.457-0.229l-0.765-0.382l-0.994-0.421l-1.374-0.535l-1.414-0.458
	C166.013,123.073,163.023,122.623,160.019,122.623z"/>
<path fill="#006837" d="M160.019,191.408c-21.105,0-38.215-17.109-38.215-38.215c0-21.104,17.109-38.213,38.215-38.213
	s38.214,17.109,38.214,38.213C198.232,174.299,181.124,191.408,160.019,191.408z M160.019,122.623
	c-16.885-0.016-30.584,13.66-30.599,30.543c-0.016,16.885,13.659,30.584,30.543,30.6c16.885,0.016,30.584-13.66,30.6-30.545
	c0.009-10.215-5.085-19.76-13.577-25.439C171.964,124.423,166.06,122.628,160.019,122.623z"/>
<path fill="#006837" d="M163.84,92.051h-49.679c-2.11,0-3.821-1.711-3.821-3.821s1.711-3.821,3.821-3.821h49.679
	c2.11,0,3.821,1.711,3.821,3.821S165.95,92.051,163.84,92.051z"/>
<path fill="#006837" d="M129.447,107.337h-15.286c-2.11,0-3.821-1.711-3.821-3.821s1.711-3.821,3.821-3.821h15.286
	c2.11,0,3.821,1.711,3.821,3.821S131.558,107.337,129.447,107.337z"/>
<path fill="#FFFFFF" d="M209.697,157.016c-2.11,0-3.821-1.711-3.821-3.822c0.051-12.489-5.051-24.447-14.102-33.054
	c-0.753-0.718-1.181-1.711-1.185-2.751V61.48c0-6.332-5.133-11.464-11.464-11.464c-2.111,0-3.822-1.711-3.822-3.821
	s1.711-3.821,3.822-3.821h15.285c10.553,0,19.107,8.555,19.107,19.107v91.713C213.519,155.305,211.808,157.016,209.697,157.016z
	 M198.232,115.783c2.91,2.975,5.474,6.27,7.644,9.821V61.48c0-6.332-5.134-11.464-11.465-11.464l0,0
	c2.48,3.308,3.821,7.33,3.821,11.464V115.783z"/>
<path fill="#FFFFFF" d="M194.411,248.73h-15.285c-2.111,0-3.822-1.711-3.822-3.822c0-2.109,1.711-3.82,3.822-3.82
	c6.331,0,11.464-5.133,11.464-11.465l0,0v-27.4c0.008-1.543,0.942-2.93,2.369-3.516c1.423-0.598,3.066-0.281,4.164,0.803
	l15.286,15.287c0.716,0.721,1.114,1.697,1.108,2.713v12.113C213.519,240.176,204.964,248.73,194.411,248.73z M194.411,241.088
	L194.411,241.088c6.331,0,11.465-5.133,11.465-11.465l0,0v-10.547l-7.644-7.643v18.189
	C198.232,233.758,196.892,237.779,194.411,241.088z"/>
<path fill="#FFFFFF" d="M209.697,191.408c-1.016,0.006-1.992-0.393-2.714-1.107l-7.643-7.643c-1.271-1.277-1.479-3.268-0.498-4.777
	c4.646-7.393,7.086-15.955,7.032-24.688c0-2.109,1.711-3.82,3.821-3.82s3.821,1.711,3.821,3.82v34.395
	c-0.008,1.543-0.942,2.93-2.369,3.516C210.695,191.316,210.198,191.422,209.697,191.408z"/>
<path fill="#FFFFFF" d="M140.911,69.123H95.054c-2.11,0-3.821-1.711-3.821-3.822V46.194c0-6.332,5.133-11.464,11.465-11.464h42.035
	c6.332,0,11.465,5.133,11.465,11.464c0,2.11-1.711,3.821-3.821,3.821h-3.822c-2.11,0-3.821,1.711-3.821,3.821v11.464
	C144.732,67.412,143.021,69.123,140.911,69.123z M98.876,61.48h38.214v-7.643c0.002-5.387,3.755-10.047,9.019-11.197
	c-0.434-0.187-0.903-0.278-1.376-0.267h-42.035c-2.11,0-3.821,1.711-3.821,3.821V61.48z"/>
<circle opacity="0.3" fill="#006837" cx="76.831" cy="157.295" r="13.972"/>
</svg>
